<?xml version="1.0" encoding="iso-8859-1"?>
<!-- Generator: Adobe Illustrator 19.0.0, SVG Export Plug-In . SVG Version: 6.00 Build 0)  -->
<svg version="1.1" id="Capa_1" xmlns="http://www.w3.org/2000/svg" xmlns:xlink="http://www.w3.org/1999/xlink" x="0px" y="0px"
	 viewBox="0 0 512 512" style="enable-background:new 0 0 512 512;" xml:space="preserve">
<path style="fill:#A6C8E8;" d="M192.281,215.121v12.798c0,5.282-4.97,9.154-10.092,7.862l-23.141-5.839h-40.111l-23.141,5.839
	c-5.122,1.292-10.092-2.58-10.092-7.862v-12.798c0-4.69,2.233-9.098,6.013-11.874l20.316-14.914h53.919l20.316,14.914
	C190.048,206.023,192.281,210.432,192.281,215.121z"/>
<path style="fill:#81A9C9;" d="M129.065,188.333v41.609h-10.128l-23.141,5.839c-5.122,1.292-10.092-2.58-10.092-7.862V215.12
	c0-4.69,2.233-9.098,6.013-11.874l20.316-14.914h17.032V188.333z"/>
<path style="fill:#A6C8E8;" d="M169.968,57.666h-61.143l0.288-26.148c-0.576-14.72,9.412-27.331,23.093-30.654
	C134.511,0.298,136.928,0,139.407,0c16.798,0,30.304,13.64,30.304,30.294C169.711,30.695,169.968,57.666,169.968,57.666z"/>
<path style="fill:#81A9C9;" d="M108.826,57.666l0.288-26.148c-0.576-14.72,9.412-27.331,23.093-30.654
	c13.29,3.23,23.103,15.234,23.103,29.429c0,0.401,0.257,27.372,0.257,27.372S108.826,57.666,108.826,57.666z"/>
<path style="fill:#A6C8E8;" d="M274.762,144.06v18.725c0,4.869-4.319,8.604-9.137,7.9l-98.684-14.402h-55.137l-31.349,4.573
	l-67.334,9.829c-4.817,0.704-9.137-3.031-9.137-7.9v-18.724c0-5.348,3.232-10.165,8.18-12.193l66.566-27.287l31.095-12.748h59.098
	l97.661,40.035C271.53,133.895,274.762,138.714,274.762,144.06z"/>
<polygon style="fill:#81A9C9;" points="137.38,91.833 135.4,156.284 111.805,156.284 80.456,160.857 78.73,104.581 109.825,91.833 
	"/>
<path style="fill:#A6C8E8;" d="M139.4,239.038L139.4,239.038c-13.927,0-25.334-11.062-25.762-24.983l-4.809-156.389
	c-0.531-17.252,13.311-31.525,30.571-31.525l0,0c17.261,0,31.101,14.273,30.571,31.525l-4.809,156.389
	C164.735,227.976,153.327,239.038,139.4,239.038z"/>
<path id="SVGCleanerId_0" style="fill:#A5E5DF;" d="M161.002,35.077v8.918c-5.524-5.514-13.146-8.939-21.602-8.939
	s-16.078,3.415-21.602,8.929v-8.918c5.524-5.514,13.146-8.929,21.602-8.929C147.856,26.138,155.478,29.563,161.002,35.077z"/>
<g>
	<path style="fill:#81A9C9;" d="M130.285,214.057l-4.809-156.389c-0.441-14.365,9.084-26.656,22.248-30.371
		c-2.646-0.747-5.435-1.154-8.324-1.154l0,0c-17.261,0-31.101,14.273-30.571,31.525l4.809,156.389
		c0.428,13.92,11.836,24.983,25.762,24.983l0,0c2.911,0,5.71-0.49,8.324-1.381C137.835,234.283,130.624,225.066,130.285,214.057z"/>
	<path style="fill:#81A9C9;" d="M147.112,188.334v69.104c0,2.89-1.584,5.411-3.94,6.727c-1.111,0.627-2.397,0.987-3.775,0.987
		c-4.259,0-7.715-3.456-7.715-7.715v-69.104c0-4.259,3.456-7.715,7.715-7.715c1.378,0,2.664,0.36,3.775,0.988
		C145.528,182.924,147.112,185.444,147.112,188.334z"/>
</g>
<path style="fill:#A6C8E8;" d="M147.112,188.334v69.104c0,2.89-1.584,5.411-3.94,6.727c-2.356-1.317-3.94-3.837-3.94-6.727v-69.104
	c0-2.89,1.584-5.411,3.94-6.727C145.528,182.924,147.112,185.444,147.112,188.334z"/>
<g>
	<path id="SVGCleanerId_0_1_" style="fill:#A5E5DF;" d="M161.002,35.077v8.918c-5.524-5.514-13.146-8.939-21.602-8.939
		s-16.078,3.415-21.602,8.929v-8.918c5.524-5.514,13.146-8.929,21.602-8.929C147.856,26.138,155.478,29.563,161.002,35.077z"/>
</g>
<path style="fill:#A6C8E8;" d="M425.535,461.968v12.798c0,5.282-4.97,9.154-10.092,7.862l-23.141-5.839H352.19l-23.141,5.839
	c-5.122,1.292-10.092-2.58-10.092-7.862v-12.798c0-4.69,2.233-9.098,6.013-11.874l20.316-14.914h53.919l20.316,14.914
	C423.302,452.869,425.535,457.278,425.535,461.968z"/>
<path style="fill:#81A9C9;" d="M362.32,435.181v41.609h-10.128l-23.141,5.839c-5.122,1.292-10.092-2.58-10.092-7.862v-12.798
	c0-4.69,2.233-9.098,6.013-11.874l20.316-14.914h17.032V435.181z"/>
<path style="fill:#A6C8E8;" d="M403.222,304.512H342.08l0.288-26.148c-0.576-14.72,9.412-27.331,23.093-30.654
	c2.304-0.566,4.721-0.864,7.201-0.864c16.798,0,30.304,13.64,30.304,30.294C402.965,277.541,403.222,304.512,403.222,304.512z"/>
<path style="fill:#81A9C9;" d="M342.08,304.512l0.288-26.148c-0.576-14.72,9.412-27.331,23.093-30.654
	c13.29,3.23,23.103,15.234,23.103,29.429c0,0.401,0.257,27.372,0.257,27.372L342.08,304.512L342.08,304.512z"/>
<path style="fill:#A6C8E8;" d="M508.017,390.907v18.725c0,4.869-4.319,8.604-9.137,7.9l-98.684-14.402h-55.137l-31.349,4.573
	l-67.334,9.829c-4.817,0.704-9.137-3.031-9.137-7.9v-18.724c0-5.348,3.232-10.165,8.18-12.193l66.566-27.287l31.095-12.748h59.098
	l97.661,40.035C504.786,380.743,508.017,385.56,508.017,390.907z"/>
<polygon style="fill:#81A9C9;" points="370.635,338.68 368.655,403.13 345.06,403.13 313.71,407.704 311.984,351.428 343.08,338.68 
	"/>
<path style="fill:#A6C8E8;" d="M372.655,485.886L372.655,485.886c-13.927,0-25.334-11.062-25.762-24.983l-4.809-156.389
	c-0.531-17.252,13.311-31.525,30.571-31.525l0,0c17.261,0,31.101,14.273,30.571,31.525l-4.809,156.389
	C397.989,474.823,386.581,485.886,372.655,485.886z"/>
<path id="SVGCleanerId_1" style="fill:#A5E5DF;" d="M394.257,281.923v8.918c-5.524-5.513-13.146-8.939-21.602-8.939
	c-8.455,0-16.078,3.415-21.602,8.929v-8.918c5.524-5.514,13.146-8.929,21.602-8.929S388.733,276.41,394.257,281.923z"/>
<g>
	<path style="fill:#81A9C9;" d="M363.539,460.903l-4.809-156.389c-0.441-14.365,9.084-26.656,22.247-30.371
		c-2.646-0.747-5.435-1.154-8.324-1.154l0,0c-17.261,0-31.101,14.273-30.571,31.525l4.809,156.389
		c0.428,13.92,11.836,24.983,25.762,24.983l0,0c2.911,0,5.71-0.49,8.324-1.381C371.089,481.129,363.878,471.913,363.539,460.903z"/>
	<path style="fill:#81A9C9;" d="M380.366,435.181v69.104c0,2.891-1.584,5.411-3.94,6.727c-1.111,0.627-2.397,0.987-3.775,0.987
		c-4.259,0-7.715-3.456-7.715-7.715v-69.104c0-4.259,3.456-7.715,7.715-7.715c1.378,0,2.664,0.36,3.775,0.987
		C378.782,429.77,380.366,432.29,380.366,435.181z"/>
</g>
<path style="fill:#A6C8E8;" d="M380.366,435.181v69.104c0,2.891-1.584,5.411-3.94,6.727c-2.356-1.317-3.94-3.837-3.94-6.727v-69.104
	c0-2.89,1.584-5.411,3.94-6.727C378.782,429.77,380.366,432.29,380.366,435.181z"/>
<g>
	<path id="SVGCleanerId_1_1_" style="fill:#A5E5DF;" d="M394.257,281.923v8.918c-5.524-5.513-13.146-8.939-21.602-8.939
		c-8.455,0-16.078,3.415-21.602,8.929v-8.918c5.524-5.514,13.146-8.929,21.602-8.929S388.733,276.41,394.257,281.923z"/>
</g>
<path style="fill:#F74B68;" d="M272.328,295.943c-4.261,0-7.715,3.454-7.715,7.715v10.47l-50.608-50.608
	c-3.013-3.013-7.898-3.013-10.91,0c-3.013,3.013-3.013,7.897,0,10.91l50.608,50.608h-10.469c-4.261,0-7.715,3.454-7.715,7.715
	s3.454,7.715,7.715,7.715h29.094c4.261,0,7.715-3.454,7.715-7.715v-29.094C280.042,299.396,276.588,295.943,272.328,295.943z"/>
<path style="fill:#50C98A;" d="M313.526,291.553l-50.608-50.608h10.469c4.261,0,7.715-3.454,7.715-7.715
	c0-4.261-3.454-7.715-7.715-7.715h-29.093c-4.261,0-7.715,3.454-7.715,7.715v29.094c0,4.261,3.454,7.715,7.715,7.715
	s7.715-3.454,7.715-7.715v-10.47l50.608,50.608c1.506,1.507,3.481,2.26,5.455,2.26c1.974,0,3.949-0.753,5.455-2.26
	C316.539,299.45,316.539,294.566,313.526,291.553z"/>
<g>
</g>
<g>
</g>
<g>
</g>
<g>
</g>
<g>
</g>
<g>
</g>
<g>
</g>
<g>
</g>
<g>
</g>
<g>
</g>
<g>
</g>
<g>
</g>
<g>
</g>
<g>
</g>
<g>
</g>
</svg>
