<?xml version="1.0" encoding="iso-8859-1"?>
<!-- Generator: Adobe Illustrator 19.0.0, SVG Export Plug-In . SVG Version: 6.00 Build 0)  -->
<svg version="1.1" id="Capa_1" xmlns="http://www.w3.org/2000/svg" xmlns:xlink="http://www.w3.org/1999/xlink" x="0px" y="0px"
	 viewBox="0 0 512 512" style="enable-background:new 0 0 512 512;" xml:space="preserve">
<path style="fill:#B3B3B3;" d="M473.819,78.054h-98.565v20.898c0,4.326-3.511,7.837-7.837,7.837s-7.837-3.511-7.837-7.837V78.054
	H81.011c-21.086,0-38.181,17.095-38.181,38.181v214.716c0,21.086,17.095,38.181,38.181,38.181h392.808
	c21.086,0,38.181-17.095,38.181-38.181V116.234C512,95.148,494.905,78.054,473.819,78.054z M375.254,142.879
	c0,4.326-3.511,7.837-7.837,7.837s-7.837-3.511-7.837-7.837v-20.898c0-4.326,3.511-7.837,7.837-7.837s7.837,3.511,7.837,7.837
	V142.879z"/>
<path style="fill:#E6E6E6;" d="M430.979,142.879h-98.565v20.898c0,4.326-3.5,7.837-7.837,7.837c-4.326,0-7.837-3.511-7.837-7.837
	v-20.898H38.17c-21.086,0-38.17,17.095-38.17,38.17v214.727c0,21.076,17.084,38.17,38.17,38.17h278.57v-20.898
	c0-4.326,3.511-7.837,7.837-7.837c4.336,0,7.837,3.511,7.837,7.837v20.898h98.565c21.086,0,38.181-17.095,38.181-38.17V181.049
	C469.159,159.974,452.065,142.879,430.979,142.879z M332.413,382.422c0,4.326-3.5,7.837-7.837,7.837
	c-4.326,0-7.837-3.511-7.837-7.837v-42.256c0-4.326,3.511-7.837,7.837-7.837c4.336,0,7.837,3.511,7.837,7.837V382.422z
	 M332.413,309.541c0,4.326-3.5,7.837-7.837,7.837c-4.326,0-7.837-3.511-7.837-7.837v-42.256c0-4.326,3.511-7.837,7.837-7.837
	c4.336,0,7.837,3.511,7.837,7.837V309.541z M332.413,236.659c0,4.326-3.5,7.837-7.837,7.837c-4.326,0-7.837-3.511-7.837-7.837
	v-42.256c0-4.326,3.511-7.837,7.837-7.837c4.336,0,7.837,3.511,7.837,7.837V236.659z"/>
<g>
	<path style="fill:#666666;" d="M422.139,207.433h-51.202c-4.329,0-7.837-3.509-7.837-7.837c0-4.328,3.508-7.837,7.837-7.837h51.202
		c4.329,0,7.837,3.509,7.837,7.837C429.975,203.924,426.468,207.433,422.139,207.433z"/>
	<path style="fill:#666666;" d="M422.139,242.96h-51.202c-4.329,0-7.837-3.509-7.837-7.837s3.508-7.837,7.837-7.837h51.202
		c4.329,0,7.837,3.509,7.837,7.837S426.468,242.96,422.139,242.96z"/>
	<path style="fill:#666666;" d="M422.139,397.605h-51.202c-4.329,0-7.837-3.509-7.837-7.837c0-4.328,3.508-7.837,7.837-7.837h51.202
		c4.329,0,7.837,3.509,7.837,7.837C429.975,394.096,426.468,397.605,422.139,397.605z"/>
</g>
<path style="fill:#A6C8E8;" d="M139.51,375.026l-9.193,9.193c-3.794,3.794-10.145,3.005-12.896-1.602l-12.428-20.815l-28.811-28.811
	l-20.815-12.428c-4.607-2.75-5.396-9.101-1.602-12.896l9.193-9.193c3.369-3.369,8.139-4.932,12.847-4.21l25.304,3.88l38.729,38.729
	l3.88,25.304C144.441,366.888,142.878,371.659,139.51,375.026z"/>
<path style="fill:#81A9C9;" d="M113.344,310.38l-29.887,29.887l-7.275-7.275l-20.815-12.428c-4.607-2.75-5.396-9.101-1.602-12.896
	l9.193-9.193c3.369-3.369,8.139-4.932,12.847-4.21l25.304,3.88L113.344,310.38z"/>
<path style="fill:#A6C8E8;" d="M236.581,245.903l-43.917-43.917l18.989-18.575c10.16-10.987,26.392-12.871,38.605-5.43
	c2.062,1.249,4.012,2.771,5.793,4.552c12.065,12.065,11.969,31.564,0.007,43.526C255.768,226.346,236.581,245.903,236.581,245.903z"
	/>
<path style="fill:#81A9C9;" d="M192.662,201.986l18.989-18.575c10.16-10.987,26.392-12.871,38.605-5.43
	c7.227,11.866,5.652,27.537-4.544,37.733c-0.288,0.288-19.476,19.846-19.476,19.846L192.662,201.986z"/>
<path style="fill:#A6C8E8;" d="M249.796,383.231l-13.45,13.45c-3.497,3.497-9.283,3.077-12.238-0.888l-60.537-81.227l-39.604-39.604
	l-25.803-19.233l-55.425-41.305c-3.965-2.955-4.385-8.741-0.888-12.238l13.45-13.45c3.841-3.841,9.622-4.98,14.633-2.883
	l67.413,28.213l31.492,13.178l42.448,42.448l41.392,98.904C254.776,373.608,253.637,379.39,249.796,383.231z"/>
<polygon style="fill:#81A9C9;" points="188.631,247.038 140.916,291.909 123.968,274.961 98.165,255.728 137.348,214.067 
	168.839,227.245 "/>
<path style="fill:#A6C8E8;" d="M84.347,354.224L84.347,354.224c-10.003-10.003-10.251-26.143-0.56-36.449l108.877-115.785
	c12.011-12.773,32.205-13.083,44.603-0.685l0,0c12.398,12.398,12.087,32.591-0.685,44.603L120.796,354.784
	C110.491,364.475,94.351,364.226,84.347,354.224z"/>
<path id="SVGCleanerId_0" style="fill:#A5E5DF;" d="M246.365,223.238l-6.406,6.406c-0.007-7.928-3.022-15.864-9.095-21.937
	c-6.073-6.073-14.002-9.095-21.929-9.103l6.406-6.406c7.928,0.007,15.856,3.029,21.929,9.103
	C243.343,207.375,246.358,215.31,246.365,223.238z"/>
<g>
	<path style="fill:#81A9C9;" d="M95.745,329.732l108.877-115.785c10.001-10.635,25.671-12.621,37.795-5.835
		c-1.364-2.437-3.074-4.733-5.149-6.808l0,0c-12.398-12.398-32.591-12.087-44.603,0.685L83.787,317.774
		c-9.69,10.306-9.443,26.445,0.56,36.449l0,0c2.091,2.091,4.452,3.75,6.971,4.986C86.639,349.682,88.08,337.883,95.745,329.732z"/>
	<path style="fill:#81A9C9;" d="M126.306,323.343L76.67,372.978c-2.076,2.076-5.024,2.748-7.662,2.002
		c-1.249-0.347-2.43-1.013-3.421-2.002c-3.058-3.058-3.058-8.024,0-11.083l49.636-49.636c3.058-3.058,8.024-3.058,11.083,0
		c0.99,0.99,1.655,2.172,2.002,3.421C129.055,318.319,128.382,321.266,126.306,323.343z"/>
</g>
<path style="fill:#A6C8E8;" d="M126.306,323.343L76.67,372.978c-2.076,2.076-5.024,2.748-7.662,2.002
	c-0.746-2.637-0.074-5.586,2.002-7.662l49.636-49.636c2.076-2.076,5.024-2.748,7.662-2.002
	C129.055,318.319,128.382,321.266,126.306,323.343z"/>
<g>
	<path id="SVGCleanerId_0_1_" style="fill:#A5E5DF;" d="M246.365,223.238l-6.406,6.406c-0.007-7.928-3.022-15.864-9.095-21.937
		c-6.073-6.073-14.002-9.095-21.929-9.103l6.406-6.406c7.928,0.007,15.856,3.029,21.929,9.103
		C243.343,207.375,246.358,215.31,246.365,223.238z"/>
</g>
<g>
</g>
<g>
</g>
<g>
</g>
<g>
</g>
<g>
</g>
<g>
</g>
<g>
</g>
<g>
</g>
<g>
</g>
<g>
</g>
<g>
</g>
<g>
</g>
<g>
</g>
<g>
</g>
<g>
</g>
</svg>
