<?xml version="1.0" encoding="iso-8859-1"?>
<!-- Generator: Adobe Illustrator 19.0.0, SVG Export Plug-In . SVG Version: 6.00 Build 0)  -->
<svg version="1.1" id="Capa_1" xmlns="http://www.w3.org/2000/svg" xmlns:xlink="http://www.w3.org/1999/xlink" x="0px" y="0px"
	 viewBox="0 0 512 512" style="enable-background:new 0 0 512 512;" xml:space="preserve">
<path style="fill:#428FCE;" d="M512,190.141c0,33.992-41.172,63.989-69.046,91.873H69.046C41.172,254.13,0,224.133,0,190.141
	C0,124.558,142.202,69.513,254.577,69.056c0.478-0.011,0.945-0.011,1.423-0.011C368.598,69.046,512,124.282,512,190.141z"/>
<path style="fill:#666666;" d="M442.954,317.61v52.963c0,0-51.901,72.381-186.954,72.381c-35.203,0-64.765-4.918-89.218-12.195
	c-69.364-20.629-97.737-60.187-97.737-60.187V317.61H442.954z"/>
<path style="fill:#3180B5;" d="M236.88,260.122l-48.3,21.893H69.046C41.172,254.13,0,224.133,0,190.141
	C0,124.558,142.202,69.513,254.577,69.056c-66.018,1.147-174.728,81.176-149.415,144.454
	C130.656,277.245,236.88,260.122,236.88,260.122z"/>
<path style="fill:#4D4D4D;" d="M166.772,430.749l0.011,0.011c-69.364-20.629-97.737-60.187-97.737-60.187V317.61h37.04
	l148.161,30.837C166.772,348.447,134.119,398.096,166.772,430.749z"/>
<path style="fill:#FFD371;" d="M442.954,282.014v88.559c-99.681-23.932-202.814-28.457-303.801-13.565
	c-23.507,3.474-46.909,7.988-70.108,13.565v-88.559c23.199-5.577,46.6-10.091,70.108-13.554
	C240.141,253.557,343.274,258.082,442.954,282.014z"/>
<path style="fill:#DEAF50;" d="M139.154,268.46v88.548c-23.507,3.474-46.909,7.988-70.108,13.565v-88.559
	C92.245,276.438,115.646,271.923,139.154,268.46z"/>
<ellipse style="fill:#FFD371;" cx="256" cy="169.959" rx="37.178" ry="52.05"/>
<g>
</g>
<g>
</g>
<g>
</g>
<g>
</g>
<g>
</g>
<g>
</g>
<g>
</g>
<g>
</g>
<g>
</g>
<g>
</g>
<g>
</g>
<g>
</g>
<g>
</g>
<g>
</g>
<g>
</g>
</svg>
