<?xml version="1.0" encoding="iso-8859-1"?>
<!-- Generator: Adobe Illustrator 19.0.0, SVG Export Plug-In . SVG Version: 6.00 Build 0)  -->
<svg version="1.1" id="Capa_1" xmlns="http://www.w3.org/2000/svg" xmlns:xlink="http://www.w3.org/1999/xlink" x="0px" y="0px"
	 viewBox="0 0 512 512" style="enable-background:new 0 0 512 512;" xml:space="preserve">
<path style="fill:#E6E6E6;" d="M509.197,305.954c0,53.465-48.162,96.804-101.627,96.804h-19.279l-97.243-24.947l4.551-0.094
	l105.948-2.067c33.413-6.284,60.928-35.093,60.928-69.696c0-62.682-7.808-70.02-54.905-70.865l-25.156-2.902l13.173-12.067
	l11.983-10.981C495.711,209.14,509.197,209.755,509.197,305.954z"/>
<path style="fill:#CCCCCC;" d="M484.708,305.954c0,47.421-49.822,85.855-105.134,85.855h-19.947l-64.028-14.092l105.948-2.067
	c33.413-6.284,60.928-35.093,60.928-69.696c0-62.682-7.808-70.02-54.905-70.865l-25.156-2.902l13.173-12.067
	C472.423,220.476,484.708,225.903,484.708,305.954z"/>
<path style="fill:#E6E6E6;" d="M325.447,449.744L325.447,449.744l-66.312,19.216L123.97,449.744l0,0
	c-48.803-14.956-82.124-60.018-82.124-111.061v-169.75h365.725v169.75C407.571,389.726,374.25,434.788,325.447,449.744z"/>
<path style="fill:#CCCCCC;" d="M165.518,449.741h-41.544c-24.394-7.474-44.937-22.474-59.362-41.993
	c-14.436-19.509-22.766-43.538-22.766-69.059V168.931h75.416v169.757c0,25.522,4.896,49.55,13.371,69.059
	C139.12,427.268,151.186,442.267,165.518,449.741z"/>
<path style="fill:#A6C8E8;" d="M446.614,449.744H2.803l0,0c21.23,38.411,61.652,62.255,105.54,62.255h232.73
	C384.961,512,425.383,488.156,446.614,449.744L446.614,449.744z"/>
<path style="fill:#81A9C9;" d="M135.887,449.744H104.57H2.803l0,0C24.033,488.156,64.455,512,108.343,512H210.11
	C166.224,512,135.887,493.667,135.887,449.744z"/>
<g>
	<path style="fill:#A6C8E8;" d="M140.513,137.22c-4.324,0-7.829-3.505-7.829-7.829c0-12.941,5.621-19.761,10.138-25.241
		c3.81-4.622,6.564-7.961,6.564-15.283c0-7.32-2.753-10.66-6.563-15.282c-4.518-5.48-10.139-12.299-10.139-25.241
		c0-12.94,5.622-19.76,10.139-25.239c3.81-4.621,6.563-7.96,6.563-15.278c0-4.324,3.505-7.829,7.829-7.829s7.829,3.505,7.829,7.829
		c0,12.94-5.622,19.76-10.139,25.239c-3.81,4.621-6.563,7.96-6.563,15.278c0,7.32,2.753,10.66,6.563,15.282
		c4.518,5.48,10.139,12.299,10.139,25.241s-5.621,19.762-10.139,25.242c-3.81,4.622-6.563,7.961-6.563,15.282
		C148.342,133.716,144.837,137.22,140.513,137.22z"/>
	<path style="fill:#A6C8E8;" d="M216.358,137.22c-4.324,0-7.829-3.505-7.829-7.829c0-12.941,5.621-19.761,10.138-25.241
		c3.81-4.622,6.564-7.961,6.564-15.283c0-7.32-2.753-10.66-6.563-15.282c-4.518-5.48-10.139-12.299-10.139-25.241
		c0-12.94,5.622-19.76,10.139-25.239c3.81-4.621,6.563-7.96,6.563-15.278c0-4.324,3.505-7.829,7.829-7.829
		c4.324,0,7.829,3.505,7.829,7.829c0,12.94-5.622,19.76-10.139,25.239c-3.81,4.621-6.563,7.96-6.563,15.278
		c0,7.32,2.753,10.66,6.563,15.282c4.518,5.48,10.139,12.299,10.139,25.241s-5.621,19.762-10.139,25.242
		c-3.81,4.622-6.563,7.961-6.563,15.282C224.186,133.716,220.681,137.22,216.358,137.22z"/>
	<path style="fill:#A6C8E8;" d="M292.202,137.22c-4.324,0-7.829-3.505-7.829-7.829c0-12.941,5.621-19.761,10.138-25.241
		c3.81-4.622,6.564-7.961,6.564-15.283c0-7.32-2.753-10.66-6.563-15.282c-4.518-5.48-10.139-12.299-10.139-25.241
		c0-12.94,5.622-19.76,10.139-25.239c3.81-4.621,6.563-7.96,6.563-15.278c0-4.324,3.505-7.829,7.829-7.829s7.829,3.505,7.829,7.829
		c0,12.94-5.622,19.76-10.139,25.239c-3.81,4.621-6.563,7.96-6.563,15.278c0,7.32,2.753,10.66,6.563,15.282
		c4.518,5.48,10.139,12.299,10.139,25.241s-5.621,19.762-10.139,25.242c-3.81,4.622-6.563,7.961-6.563,15.282
		C300.031,133.716,296.525,137.22,292.202,137.22z"/>
</g>
<g>
</g>
<g>
</g>
<g>
</g>
<g>
</g>
<g>
</g>
<g>
</g>
<g>
</g>
<g>
</g>
<g>
</g>
<g>
</g>
<g>
</g>
<g>
</g>
<g>
</g>
<g>
</g>
<g>
</g>
</svg>
