<?xml version="1.0" encoding="iso-8859-1"?>
<!-- Generator: Adobe Illustrator 19.0.0, SVG Export Plug-In . SVG Version: 6.00 Build 0)  -->
<svg version="1.1" id="Capa_1" xmlns="http://www.w3.org/2000/svg" xmlns:xlink="http://www.w3.org/1999/xlink" x="0px" y="0px"
	 viewBox="0 0 512 512" style="enable-background:new 0 0 512 512;" xml:space="preserve">
<path style="fill:#3180B5;" d="M510.228,311.445c0,95.046-66.113,174.648-154.866,195.324c-14.677,3.425-29.984,5.232-45.7,5.232
	c-110.763,0-200.556-89.793-200.556-200.556c0-110.773,89.793-200.566,200.556-200.566c15.717,0,31.024,1.807,45.7,5.232
	C444.115,136.786,510.228,216.388,510.228,311.445z"/>
<path style="fill:#428FCE;" d="M510.228,311.445c0,95.046-66.113,174.648-154.866,195.324
	c-88.753-20.675-154.866-100.278-154.866-195.324c0-95.056,66.113-174.659,154.866-195.334
	C444.115,136.786,510.228,216.388,510.228,311.445z"/>
<g>
	<path style="fill:#38A877;" d="M133.154,406.75c-15.338-28.345-24.048-60.808-24.048-95.298c0-31.749,7.375-61.774,20.518-88.459
		c0,0,50.68,12.765,60.135,45.858c9.455,33.083-37.747,55.145-18.837,74.055S133.154,406.75,133.154,406.75z"/>
	<path style="fill:#38A877;" d="M230.753,495.881c-34.207-14.645-63.518-38.546-84.792-68.54c0,0,36.781-34.795,53.327-18.249
		c16.536,16.547,7.869,36.245,45.69,45.7C282.798,464.248,263.793,495.881,230.753,495.881z"/>
	<path style="fill:#38A877;" d="M341.83,113.449v0.011c-57.467,57.456-112.948,14.372-112.948,14.372l0.042-0.032
		c24.699-10.873,52.014-16.914,80.737-16.914C320.609,110.886,331.356,111.758,341.83,113.449z"/>
</g>
<path style="fill:#50C98A;" d="M506.383,350.712c-8.31,41.939-29.721,79.172-59.767,107.264l-0.021-0.01
	c-65.682-31.486-48.757-70.935-18.826-130.818c29.941-59.873-42.538-45.69-63.024-111.876
	c-20.486-66.187,46.194-76.965,46.194-76.965h0.011c41.13,24.111,72.91,62.457,88.553,108.283c0,0-21.306,25.414-21.306,53.769
	c0,28.366,28.166,50.396,28.166,50.396L506.383,350.712z"/>
<path style="fill:#A6C8E8;" d="M102.35,202.609l-9.243,9.243c-3.815,3.815-10.2,3.021-12.966-1.611l-12.496-20.929l-28.968-28.968
	l-20.929-12.496c-4.632-2.765-5.425-9.151-1.611-12.966l9.243-9.243c3.387-3.387,8.183-4.959,12.917-4.233l25.442,3.901l38.94,38.94
	l3.901,25.442C107.307,194.426,105.736,199.223,102.35,202.609z"/>
<path style="fill:#81A9C9;" d="M76.042,137.61l-30.05,30.05l-7.314-7.314L17.75,147.85c-4.632-2.765-5.425-9.151-1.611-12.966
	l9.243-9.243c3.387-3.387,8.183-4.959,12.917-4.233l25.442,3.901L76.042,137.61z"/>
<path style="fill:#A6C8E8;" d="M199.947,72.783l-44.156-44.156l19.092-18.676c10.215-11.047,26.536-12.941,38.815-5.46
	c2.073,1.255,4.034,2.786,5.824,4.576c12.131,12.131,12.034,31.736,0.007,43.763C219.24,53.12,199.947,72.783,199.947,72.783z"/>
<path style="fill:#81A9C9;" d="M155.792,28.628l19.092-18.676c10.215-11.047,26.536-12.941,38.815-5.46
	c7.266,11.93,5.683,27.687-4.569,37.939c-0.29,0.29-19.582,19.954-19.582,19.954L155.792,28.628z"/>
<path style="fill:#A6C8E8;" d="M213.235,210.858l-13.523,13.523c-3.516,3.516-9.333,3.094-12.304-0.893l-60.866-81.669
	l-39.819-39.82L60.78,82.662L5.054,41.133c-3.987-2.971-4.409-8.788-0.893-12.304l13.523-13.523
	c3.862-3.862,9.675-5.007,14.712-2.899l67.779,28.367l31.663,13.25l42.679,42.679l41.617,99.442
	C218.242,201.183,217.097,206.996,213.235,210.858z"/>
<polygon style="fill:#81A9C9;" points="151.737,73.924 103.763,119.039 86.722,101.999 60.78,82.662 100.175,40.774 131.838,54.024 
	"/>
<path style="fill:#A6C8E8;" d="M46.887,181.693L46.887,181.693c-10.057-10.057-10.307-26.286-0.563-36.647L155.794,28.631
	c12.076-12.842,32.38-13.154,44.845-0.689l0,0c12.465,12.465,12.153,32.769-0.689,44.845L83.534,182.256
	C73.172,192,56.945,191.751,46.887,181.693z"/>
<path id="SVGCleanerId_0" style="fill:#A5E5DF;" d="M209.786,49.995l-6.441,6.441c-0.007-7.971-3.038-15.95-9.144-22.056
	c-6.106-6.106-14.078-9.144-22.049-9.153l6.441-6.441c7.971,0.007,15.943,3.046,22.049,9.153
	C206.748,34.045,209.779,42.023,209.786,49.995z"/>
<g>
	<path style="fill:#81A9C9;" d="M58.346,157.068L167.815,40.654c10.055-10.693,25.811-12.69,38.001-5.866
		c-1.371-2.45-3.091-4.759-5.177-6.845l0,0c-12.465-12.465-32.769-12.153-44.845,0.689L46.323,145.046
		c-9.743,10.362-9.494,26.589,0.563,36.647l0,0c2.102,2.102,4.477,3.771,7.008,5.013C49.19,177.127,50.639,165.264,58.346,157.068z"
		/>
	<path style="fill:#81A9C9;" d="M89.073,150.644L39.168,200.55c-2.088,2.087-5.051,2.763-7.704,2.013
		c-1.255-0.349-2.444-1.018-3.44-2.013c-3.075-3.075-3.075-8.067,0-11.143L77.93,139.5c3.075-3.075,8.067-3.075,11.144,0
		c0.996,0.995,1.664,2.184,2.013,3.44C91.838,145.593,91.161,148.556,89.073,150.644z"/>
</g>
<path style="fill:#A6C8E8;" d="M89.073,150.644L39.168,200.55c-2.088,2.087-5.051,2.763-7.704,2.013
	c-0.75-2.652-0.075-5.616,2.013-7.704l49.906-49.906c2.088-2.087,5.051-2.763,7.704-2.013
	C91.838,145.593,91.161,148.556,89.073,150.644z"/>
<g>
	<path id="SVGCleanerId_0_1_" style="fill:#A5E5DF;" d="M209.786,49.995l-6.441,6.441c-0.007-7.971-3.038-15.95-9.144-22.056
		c-6.106-6.106-14.078-9.144-22.049-9.153l6.441-6.441c7.971,0.007,15.943,3.046,22.049,9.153
		C206.748,34.045,209.779,42.023,209.786,49.995z"/>
</g>
<g>
</g>
<g>
</g>
<g>
</g>
<g>
</g>
<g>
</g>
<g>
</g>
<g>
</g>
<g>
</g>
<g>
</g>
<g>
</g>
<g>
</g>
<g>
</g>
<g>
</g>
<g>
</g>
<g>
</g>
</svg>
