<?xml version="1.0" encoding="iso-8859-1"?>
<!-- Generator: Adobe Illustrator 19.0.0, SVG Export Plug-In . SVG Version: 6.00 Build 0)  -->
<svg version="1.1" id="Capa_1" xmlns="http://www.w3.org/2000/svg" xmlns:xlink="http://www.w3.org/1999/xlink" x="0px" y="0px"
	 viewBox="0 0 512 512" style="enable-background:new 0 0 512 512;" xml:space="preserve">
<g>
	<circle style="fill:#666666;" cx="409.976" cy="367.031" r="29.571"/>
	<circle style="fill:#666666;" cx="102.013" cy="367.031" r="29.571"/>
</g>
<path style="fill:#81A9C9;" d="M273.241,128.647v101.94h-34.482v-101.94c0-4.754,1.933-9.07,5.047-12.194
	c3.124-3.114,7.429-5.047,12.194-5.047c3.03,0,5.883,0.784,8.359,2.163C269.657,116.505,273.241,122.158,273.241,128.647z"/>
<path style="fill:#A6C8E8;" d="M273.241,128.647v101.94h-17.763v-101.94c0-4.754,1.933-9.07,5.047-12.194
	c1.139-1.128,2.424-2.111,3.835-2.884C269.657,116.505,273.241,122.158,273.241,128.647z"/>
<path style="fill:#81A9C9;" d="M512,316.164c0,8.307-6.322,15.256-14.597,16.029l-152.221,14.294H166.807l-152.21-14.294
	c-4.138-0.387-7.784-2.32-10.397-5.193c-2.623-2.863-4.2-6.687-4.2-10.836c0-3.741,1.275-7.189,3.427-9.927
	c2.947-3.762,7.523-6.175,12.675-6.175h479.796c4.441,0,8.474,1.797,11.389,4.712c0.46,0.46,0.888,0.951,1.285,1.463
	C510.725,308.975,512,312.423,512,316.164z"/>
<g>
	<path style="fill:#A6C8E8;" d="M508.573,306.238c-2.644,3.375-6.604,5.674-11.17,6.102l-152.221,14.294H166.807L14.597,312.34
		c-4.138-0.387-7.784-2.32-10.397-5.193c-0.272-0.293-0.522-0.596-0.773-0.909c2.947-3.762,7.523-6.175,12.675-6.175h479.796
		c4.441,0,8.474,1.797,11.389,4.712C507.747,305.235,508.176,305.726,508.573,306.238z"/>
	<circle style="fill:#A6C8E8;" cx="256" cy="300.063" r="100.53"/>
</g>
<path style="fill:#81A9C9;" d="M203.531,300.063c0-47.238,32.583-86.858,76.498-97.632c-7.701-1.889-15.749-2.899-24.033-2.899
	c-55.522,0-100.531,45.009-100.531,100.531s45.009,100.531,100.531,100.531c8.284,0,16.332-1.009,24.033-2.899
	C236.115,386.922,203.531,347.301,203.531,300.063z"/>
<path style="fill:#A5E5DF;" d="M303.692,301.099c-0.157-0.01-0.324-0.021-0.481-0.021c-12.842-10.574-29.289-16.927-47.208-16.927
	c-8.119,0-15.924,1.306-23.239,3.72c-7.043,2.309-13.615,5.642-19.55,9.843c-1.515,1.066-2.988,2.184-4.42,3.365
	c-0.157,0-0.324,0.01-0.481,0.021c-20.95,1.108-31.284-24.649-16.05-38.316c0.355-0.313,0.711-0.606,1.066-0.888
	c7.544-6.019,15.987-10.982,25.078-14.649c11.619-4.692,24.304-7.272,37.595-7.272c23.698,0,45.484,8.202,62.663,21.922
	C335.426,275.279,325.102,302.227,303.692,301.099z"/>
<path style="fill:#82BFB8;" d="M213.215,297.713c-1.515,1.066-2.988,2.184-4.42,3.365c-0.157,0-0.324,0.01-0.481,0.021
	c-20.95,1.108-31.284-24.649-16.05-38.316c0.355-0.313,0.711-0.606,1.066-0.888c7.544-6.019,15.987-10.982,25.078-14.649
	C219.045,254.758,214.97,277.38,213.215,297.713z"/>
<path style="fill:#E6E6E6;" d="M330.292,353.227c0,5.684-0.637,11.222-1.849,16.53c-18.286,19.007-43.99,30.835-72.443,30.835
	c-6.823,0-13.49-0.679-19.937-1.985c-20.438-4.106-38.63-14.42-52.527-28.881c-1.202-5.298-1.839-10.836-1.839-16.499
	c0-41.033,33.27-74.303,74.303-74.303S330.292,312.194,330.292,353.227z"/>
<path style="fill:#CCCCCC;" d="M236.063,398.607c-20.438-4.106-38.63-14.42-52.527-28.881c-1.202-5.298-1.839-10.836-1.839-16.499
	c0-41.033,33.27-74.303,74.303-74.303C239.073,278.924,198.165,357.647,236.063,398.607z"/>
<g>
</g>
<g>
</g>
<g>
</g>
<g>
</g>
<g>
</g>
<g>
</g>
<g>
</g>
<g>
</g>
<g>
</g>
<g>
</g>
<g>
</g>
<g>
</g>
<g>
</g>
<g>
</g>
<g>
</g>
</svg>
