<?xml version="1.0" encoding="iso-8859-1"?>
<!-- Generator: Adobe Illustrator 19.0.0, SVG Export Plug-In . SVG Version: 6.00 Build 0)  -->
<svg version="1.1" id="Layer_1" xmlns="http://www.w3.org/2000/svg" xmlns:xlink="http://www.w3.org/1999/xlink" x="0px" y="0px"
	 viewBox="0 0 511.999 511.999" style="enable-background:new 0 0 511.999 511.999;" xml:space="preserve">
<polygon style="fill:#844235;" points="361.725,288.68 342.269,174.135 168.779,174.135 146.936,290.592 "/>
<path style="fill:#D3EFFD;" d="M124.239,511.999V331.333c0-26.41,21.608-48.017,48.017-48.017h167.487
	c26.41,0,48.017,21.608,48.017,48.017v180.664H124.239V511.999z"/>
<polygon style="fill:#73AFD6;" points="299.323,283.316 343.993,283.513 304.784,342.537 307.844,379.704 255.999,385.99 
	204.153,379.704 207.215,342.537 172.256,283.316 212.676,283.316 "/>
<polygon style="fill:#FFD0AD;" points="299.323,283.316 255.999,385.99 212.676,283.316 "/>
<g>
	<rect x="174.854" y="452.979" style="fill:#174F79;" width="159.839" height="22.808"/>
	<path style="fill:#174F79;" d="M168.586,511.999V362.267c0-4.507,3.653-8.161,8.161-8.161c4.508,0,8.161,3.654,8.161,8.161v149.732
		H168.586z"/>
	<path style="fill:#174F79;" d="M328.423,511.999V362.267c0-4.507,3.653-8.161,8.161-8.161s8.161,3.654,8.161,8.161v149.732H328.423
		z"/>
</g>
<g>
	<rect x="224.123" y="245.416" style="fill:#FFD0AD;" width="61.292" height="47.45"/>
	<path style="fill:#FFD0AD;" d="M168.779,169.117V48.125h171.848v120.993c0,47.455-38.469,85.924-85.924,85.924l0,0
		C207.248,255.041,168.779,216.572,168.779,169.117z"/>
	<path style="fill:#FFD0AD;" d="M340.626,174.135c16.004,0,28.977-12.973,28.977-28.977s-12.973-28.977-28.977-28.977H168.779
		c-16.004,0-28.977,12.973-28.977,28.977s12.973,28.977,28.977,28.977H340.626z"/>
</g>
<path style="fill:#ECB593;" d="M340.626,174.135c16.004,0,28.977-12.973,28.977-28.977s-12.973-28.977-28.977-28.977V174.135z"/>
<g>
	<circle style="fill:#844235;" cx="219.107" cy="140.035" r="10.155"/>
	<circle style="fill:#844235;" cx="287.09" cy="140.035" r="10.155"/>
</g>
<path style="fill:#FFFFFF;" d="M277.484,174.803c3.028,0,5.239,2.812,4.594,5.77c-2.642,12.113-13.428,21.183-26.334,21.183
	s-23.692-9.07-26.334-21.183c-0.645-2.958,1.566-5.77,4.594-5.77H277.484z"/>
<path style="fill:#ECB593;" d="M316.753,48.125v120.993c0,43.401-32.185,79.267-73.986,85.079c3.903,0.543,7.884,0.844,11.937,0.844
	l0,0c47.455,0,85.924-38.469,85.924-85.924V48.125H316.753z"/>
<path style="fill:#844235;" d="M168.779,105.607c45.245,0,60.482-36.266,60.482-36.266s32.82,46.838,111.365,46.838V66.038H168.779
	V105.607z"/>
<path style="fill:#103E5B;" d="M168.779,67.506V14.827c0-8.568,8.571-14.489,16.585-11.456l45.618,17.259l94.825-20.353
	c7.626-1.636,14.82,4.176,14.82,11.977v55.253H168.779V67.506z"/>
<path style="fill:#174F79;" d="M340.626,49.013H280.95c-4.508,0-8.161-3.654-8.161-8.161s3.653-8.161,8.161-8.161h59.676V49.013z"/>
<g>
</g>
<g>
</g>
<g>
</g>
<g>
</g>
<g>
</g>
<g>
</g>
<g>
</g>
<g>
</g>
<g>
</g>
<g>
</g>
<g>
</g>
<g>
</g>
<g>
</g>
<g>
</g>
<g>
</g>
</svg>
