<?xml version="1.0" encoding="iso-8859-1"?>
<!-- Generator: Adobe Illustrator 19.0.0, SVG Export Plug-In . SVG Version: 6.00 Build 0)  -->
<svg version="1.1" id="Capa_1" xmlns="http://www.w3.org/2000/svg" xmlns:xlink="http://www.w3.org/1999/xlink" x="0px" y="0px"
	 viewBox="0 0 512 512" style="enable-background:new 0 0 512 512;" xml:space="preserve">
<path style="fill:#666666;" d="M440.862,291.19c-2.879,0-5.212-2.334-5.212-5.212V242.98c0-2.878,2.333-5.212,5.212-5.212
	s5.212,2.334,5.212,5.212v42.998C446.074,288.856,443.742,291.19,440.862,291.19z"/>
<rect x="424.447" y="337.592" style="fill:#F74B68;" width="32.835" height="112.822"/>
<rect x="424.447" y="337.592" style="fill:#DD3A5E;" width="16.417" height="112.822"/>
<rect x="424.447" y="374.442" style="fill:#F2F2F2;" width="32.835" height="35.714"/>
<rect x="424.447" y="374.442" style="fill:#CCCCCC;" width="16.417" height="35.714"/>
<polyline style="fill:#666666;" points="512,478.036 98.29,478.036 72.228,478.036 1.208,478.036 1.208,441.033 512,441.033 "/>
<polygon style="fill:#82BFB8;" points="479.406,285.977 470.181,344.614 411.544,344.614 402.318,285.977 "/>
<polygon style="fill:#A5E5DF;" points="479.406,285.977 470.181,344.614 429.785,344.614 428.379,285.977 "/>
<g>
	<path style="fill:#428FCE;" d="M479.406,293.796H402.32c-4.319,0-7.818-3.5-7.818-7.818s3.499-7.818,7.818-7.818h77.086
		c4.319,0,7.818,3.5,7.818,7.818S483.725,293.796,479.406,293.796z"/>
	<path style="fill:#428FCE;" d="M470.18,352.432h-58.635c-4.319,0-7.818-3.5-7.818-7.818c0-4.318,3.499-7.818,7.818-7.818h58.635
		c4.319,0,7.818,3.5,7.818,7.818C477.998,348.932,474.499,352.432,470.18,352.432z"/>
</g>
<g>
	<path style="fill:#3180B5;" d="M425.966,344.614c0-4.318,3.499-7.818,7.818-7.818h-22.238c-4.319,0-7.818,3.5-7.818,7.818
		c0,4.318,3.499,7.818,7.818,7.818h22.238C429.465,352.432,425.966,348.932,425.966,344.614z"/>
	<path style="fill:#3180B5;" d="M416.74,285.978c0-4.318,3.499-7.818,7.818-7.818H402.32c-4.319,0-7.818,3.5-7.818,7.818
		s3.499,7.818,7.818,7.818h22.238C420.24,293.796,416.74,290.296,416.74,285.978z"/>
</g>
<path style="fill:#81A9C9;" d="M264.637,201.708l-111.97-30.002l-79.84-56.761c-5.99-4.258-5.562-13.286,0.802-16.96l29.81-17.211
	c5.328-3.076,11.66-3.91,17.603-2.317l131.918,35.347"/>
<g>
	<path style="fill:#A6C8E8;" d="M192.505,163.906l-72.361-50.242c-3.635-2.524-8.401-2.723-12.234-0.51l-20.751,11.981
		l84.808,60.308l20.124-11.619C195.824,171.669,196.045,166.364,192.505,163.906z"/>
	<path style="fill:#A6C8E8;" d="M507.243,59.903c9.476,17.275,2.855,39.016-14.208,48.868l-344.84,199.093
		c-31.444,18.154-71.577,8.873-91.847-21.252l-14.496-21.543L0.002,202.902l28.061-16.201c6.06-3.498,13.474-3.704,19.718-0.547
		l42.569,21.521L375.229,43.2c19.138-11.049,42.412-12.254,62.589-3.239l17.066,7.625l2.735-1.579
		c8.622-4.978,18.439-5.987,27.339-3.603C494.113,44.857,502.3,50.891,507.243,59.903z"/>
</g>
<path style="fill:#81A9C9;" d="M480.974,86.463l-186.143,107.47l-98.511,56.875L151.94,276.43l-16.421,9.481
	c-31.444,18.154-71.577,8.873-91.847-21.252L1.514,202.027L0,202.9l56.347,83.709c20.27,30.125,60.403,39.406,91.847,21.252
	l16.421-9.481l44.381-25.623l98.511-56.875l186.143-107.47c17.234-9.95,23.146-31.984,13.196-49.218
	c-2.232-3.865-5.074-7.154-8.329-9.828C500.894,63.75,494.344,78.743,480.974,86.463z"/>
<path style="fill:#E6E6E6;" d="M454.883,47.586l-35.65,20.583c-12.251,7.073-27.929,2.872-35.002-9.379L375.23,43.2
	c6.815-3.935,14.159-6.623,21.697-8.037c13.624-2.569,27.896-1.011,40.891,4.798L454.883,47.586z"/>
<path style="fill:#F2F2F2;" d="M454.883,47.586l-15.898,9.179c-12.251,7.073-27.929,2.872-35.002-9.379l-7.057-12.224
	c13.624-2.569,27.895-1.011,40.891,4.798L454.883,47.586z"/>
<path style="fill:#A6C8E8;" d="M320.003,169.253l-46.452,173.361c-1.592,5.943-5.48,11.009-10.808,14.085l-29.809,17.211
	c-6.364,3.675-14.395-0.47-15.089-7.785l-13.574-143.193"/>
<g>
	<path style="fill:#FFFFFF;" d="M134.831,239.205c-6.045,3.49-13.458-2.475-11.371-9.113c2.098-6.675,11.686-7.313,14.582-0.885
		C139.668,232.818,138.269,237.22,134.831,239.205z"/>
	<path style="fill:#FFFFFF;" d="M312.416,127.649c-2.158-3.737-0.885-8.517,2.861-10.68l0,0c3.737-2.158,8.522-0.876,10.68,2.861
		l0,0c2.158,3.737,0.876,8.522-2.861,10.68l0,0C319.349,132.674,314.574,131.386,312.416,127.649z M285.513,143.18
		c-2.158-3.737-0.876-8.522,2.871-10.685l0,0c3.737-2.158,8.522-0.876,10.68,2.861l0,0c2.158,3.737,0.876,8.522-2.861,10.68l0,0
		C292.455,148.201,287.672,146.919,285.513,143.18z M258.62,158.709c-2.158-3.737-0.876-8.522,2.861-10.68l0,0
		c3.746-2.163,8.531-0.881,10.689,2.856l0,0c2.158,3.737,0.876,8.522-2.871,10.685l0,0
		C265.562,163.728,260.778,162.446,258.62,158.709z M231.726,174.236c-2.158-3.737-0.876-8.522,2.861-10.68l0,0
		c3.747-2.163,8.522-0.876,10.68,2.861l0,0c2.158,3.737,0.885,8.517-2.861,10.68l0,0
		C238.668,179.255,233.884,177.973,231.726,174.236z M204.833,189.763c-2.158-3.737-0.876-8.522,2.861-10.68l0,0
		c3.737-2.158,8.522-0.876,10.68,2.861l0,0c2.158,3.737,0.876,8.522-2.861,10.68l0,0C211.775,194.782,206.991,193.5,204.833,189.763
		z M177.939,205.29c-2.158-3.737-0.876-8.522,2.861-10.68l0,0c3.737-2.158,8.522-0.876,10.68,2.861l0,0
		c2.158,3.737,0.876,8.522-2.861,10.68l0,0C184.882,210.309,180.097,209.027,177.939,205.29z M151.045,220.817
		c-2.158-3.737-0.876-8.522,2.861-10.68l0,0c3.737-2.158,8.522-0.876,10.68,2.861l0,0c2.158,3.737,0.876,8.522-2.861,10.68l0,0
		C157.988,225.836,153.203,224.554,151.045,220.817z"/>
	<path style="fill:#FFFFFF;" d="M349.989,114.984c-6.072,3.506-13.589-2.554-11.328-9.257c1.009-2.991,3.816-5.14,6.968-5.315
		c3.433-0.191,6.689,1.957,7.825,5.214C354.672,109.122,353.209,113.124,349.989,114.984z"/>
</g>
<g>
	<path style="fill:#81A9C9;" d="M235.279,237.991l7.33,87.787c0.368,4.411-1.843,8.637-5.675,10.85l-20.751,11.981l-9.824-103.6
		l20.124-11.619C230.216,231.236,234.92,233.697,235.279,237.991z"/>
	<path style="fill:#81A9C9;" d="M58.597,255.401l-16.745,9.668L0.002,202.902l23.608-13.63l38.457,47.306
		C66.95,242.584,65.3,251.532,58.597,255.401z"/>
</g>
<g>
</g>
<g>
</g>
<g>
</g>
<g>
</g>
<g>
</g>
<g>
</g>
<g>
</g>
<g>
</g>
<g>
</g>
<g>
</g>
<g>
</g>
<g>
</g>
<g>
</g>
<g>
</g>
<g>
</g>
</svg>
