<?xml version="1.0" encoding="iso-8859-1"?>
<!-- Generator: Adobe Illustrator 19.0.0, SVG Export Plug-In . SVG Version: 6.00 Build 0)  -->
<svg version="1.1" id="Capa_1" xmlns="http://www.w3.org/2000/svg" xmlns:xlink="http://www.w3.org/1999/xlink" x="0px" y="0px"
	 viewBox="0 0 512 512" style="enable-background:new 0 0 512 512;" xml:space="preserve">
<path style="fill:#4398D1;" d="M0,300.138V256c0-14.627,11.855-26.483,26.483-26.483h35.31l27.613-41.419
	c4.811-7.212,12.906-11.546,21.575-11.546h241.938c5.826,0,11.467,2.074,15.89,5.87l54.916,47.095l64.441,6.444
	c13.533,1.359,23.835,12.747,23.835,26.35v37.826H0z"/>
<path style="fill:#87CED9;" d="M368.781,182.422c-4.423-3.796-10.063-5.87-15.89-5.87H110.98c-8.669,0-16.764,4.334-21.575,11.546
	l-27.613,41.419h361.931L368.781,182.422z"/>
<rect x="485.517" y="256" style="fill:#E5E5E5;" width="26.483" height="17.655"/>
<path style="fill:#DE4C3C;" d="M35.31,229.517h-8.828C11.855,229.517,0,241.373,0,256v8.828h35.31V229.517z"/>
<g>
	<rect x="220.69" y="176.552" style="fill:#4398D1;" width="17.655" height="52.966"/>
	<rect x="317.793" y="176.552" style="fill:#4398D1;" width="17.655" height="52.966"/>
	<rect x="123.586" y="176.552" style="fill:#4398D1;" width="17.655" height="52.966"/>
</g>
<rect y="273.655" style="fill:#3E8CC7;" width="512" height="26.483"/>
<g>
	<path style="fill:#146AA8;" d="M88.276,335.448c-19.5,0-35.31-15.81-35.31-35.31c0-19.5,15.81-35.31,35.31-35.31
		s35.31,15.81,35.31,35.31C123.56,319.629,107.767,335.422,88.276,335.448z"/>
	<path style="fill:#146AA8;" d="M432.552,335.448c-19.5,0-35.31-15.81-35.31-35.31c0-19.5,15.81-35.31,35.31-35.31
		c19.5,0,35.31,15.81,35.31,35.31C467.836,319.629,452.043,335.422,432.552,335.448z"/>
</g>
<g>
	<circle style="fill:#E5E5E5;" cx="88.276" cy="300.138" r="17.655"/>
	<circle style="fill:#E5E5E5;" cx="432.552" cy="300.138" r="17.655"/>
</g>
<path style="fill:#4398D1;" d="M368.781,182.422c-4.423-3.796-10.063-5.87-15.89-5.87H110.98c-8.669,0-16.764,4.334-21.575,11.546
	l-4.07,6.109h297.19L368.781,182.422z"/>
<g>
	<polygon style="fill:#71C4D1;" points="123.586,194.207 61.793,229.517 123.586,229.517 	"/>
	<polygon style="fill:#71C4D1;" points="141.241,229.517 220.69,194.207 220.69,229.517 	"/>
	<polygon style="fill:#71C4D1;" points="238.345,229.517 317.793,194.207 317.793,229.517 	"/>
	<polygon style="fill:#71C4D1;" points="335.448,229.517 391.424,201.896 423.724,229.517 	"/>
</g>
<g>
</g>
<g>
</g>
<g>
</g>
<g>
</g>
<g>
</g>
<g>
</g>
<g>
</g>
<g>
</g>
<g>
</g>
<g>
</g>
<g>
</g>
<g>
</g>
<g>
</g>
<g>
</g>
<g>
</g>
</svg>
