<?xml version="1.0" encoding="iso-8859-1"?>
<!-- Generator: Adobe Illustrator 19.0.0, SVG Export Plug-In . SVG Version: 6.00 Build 0)  -->
<svg version="1.1" id="Capa_1" xmlns="http://www.w3.org/2000/svg" xmlns:xlink="http://www.w3.org/1999/xlink" x="0px" y="0px"
	 viewBox="0 0 512 512" style="enable-background:new 0 0 512 512;" xml:space="preserve">
<path style="fill:#FFD371;" d="M460.178,162.481v42.172c0,8.474-6.875,15.35-15.35,15.35H67.17c-8.474,0-15.339-6.875-15.339-15.35
	v-42.172c0-8.474,6.865-15.339,15.339-15.339h377.658C453.302,147.142,460.178,154.007,460.178,162.481z"/>
<path style="fill:#DEAF50;" d="M142.11,147.142v72.861H67.17c-8.474,0-15.339-6.875-15.339-15.35v-42.172
	c0-8.474,6.865-15.339,15.339-15.339H142.11z"/>
<path style="fill:#E6E6E6;" d="M310.831,0H201.17c-9.82,0-17.781,7.961-17.781,17.781v76.224h145.223V17.781
	C328.612,7.961,320.651,0,310.831,0z"/>
<g>
	<path style="fill:#333333;" d="M124.253,436.579v63.802c0,6.416-5.214,11.619-11.63,11.619H75.634
		c-6.426,0-11.63-5.204-11.63-11.619v-63.802H124.253z"/>
	<path style="fill:#333333;" d="M447.994,436.579v63.802c0,6.416-5.204,11.619-11.619,11.619h-37
		c-6.416,0-11.619-5.204-11.619-11.619v-63.802H447.994z"/>
</g>
<g>
	<path style="fill:#666666;" d="M124.253,436.579v63.802c0,6.416-5.214,11.619-11.63,11.619h-17.23
		c-6.426,0-11.63-5.204-11.63-11.619v-63.802H124.253z"/>
	<path style="fill:#666666;" d="M447.994,436.579v63.802c0,6.416-5.204,11.619-11.619,11.619h-17.241
		c-6.416,0-11.619-5.204-11.619-11.619v-63.802H447.994z"/>
</g>
<g>
	<rect x="64.001" y="436.58" style="fill:#333333;" width="60.248" height="40.483"/>
	<rect x="387.752" y="436.58" style="fill:#333333;" width="60.238" height="40.483"/>
</g>
<path style="fill:#A5E5DF;" d="M429.047,246.96H82.96l8.765-138.704c1.296-20.413,18.227-36.313,38.692-36.313h251.175
	c3.188,0,6.296,0.385,9.27,1.123c16.082,3.947,28.328,17.955,29.411,35.189L429.047,246.96z"/>
<path style="fill:#C3F4EE;" d="M429.047,246.96h-51.818l-1.306-160.545l14.938-13.349c16.082,3.947,28.328,17.955,29.411,35.189
	L429.047,246.96z"/>
<path style="fill:#82BFB8;" d="M82.956,246.96h51.818l1.306-160.545l-14.938-13.349c-16.082,3.947-28.327,17.955-29.411,35.189
	L82.956,246.96z"/>
<path style="fill:#FFD371;" d="M429.046,246.959h-19.661c-1.027-21.766-18.996-39.098-41.017-39.098H143.632
	c-22.02,0-39.989,17.332-41.017,39.098h-19.66c-22.681,0-41.066,18.386-41.066,41.066V390.32h428.221V288.025
	C470.112,265.345,451.725,246.959,429.046,246.959z"/>
<path style="fill:#DEAF50;" d="M166.738,207.864c-17.499,0-31.769,17.327-32.588,39.096h-15.616
	c-18.015,0-32.619,18.389-32.619,41.07v102.289H41.89V288.03c0-22.681,18.389-41.07,41.07-41.07h19.655
	c1.032-21.769,18.996-39.096,41.02-39.096L166.738,207.864L166.738,207.864z"/>
<g>
	<path style="fill:#C3F4EE;" d="M145.202,318.331c0,19.016-15.424,34.441-34.45,34.441c-4.342,0-8.501-0.799-12.327-2.277
		c-12.934-4.959-22.114-17.488-22.114-32.163c0-14.685,9.179-27.214,22.114-32.174c3.825-1.477,7.985-2.277,12.327-2.277
		C129.778,283.881,145.202,299.304,145.202,318.331z"/>
	<path style="fill:#C3F4EE;" d="M435.686,318.331c0,19.016-15.413,34.441-34.441,34.441c-4.342,0-8.501-0.81-12.327-2.277
		c-12.934-4.959-22.114-17.488-22.114-32.163c0-14.675,9.179-27.214,22.114-32.174c3.825-1.468,7.985-2.277,12.327-2.277
		C420.272,283.881,435.686,299.304,435.686,318.331z"/>
</g>
<g>
	<path style="fill:#A5E5DF;" d="M120.548,318.331c0,14.675-9.19,27.214-22.124,32.163c-12.934-4.959-22.114-17.488-22.114-32.163
		c0-14.685,9.179-27.214,22.114-32.173C111.359,291.106,120.548,303.646,120.548,318.331z"/>
	<path style="fill:#A5E5DF;" d="M411.042,318.331c0,14.675-9.179,27.204-22.124,32.163c-12.934-4.959-22.114-17.488-22.114-32.163
		s9.179-27.214,22.114-32.173C401.862,291.116,411.042,303.646,411.042,318.331z"/>
</g>
<g>
	<path style="fill:#DEAF50;" d="M110.755,360.61c-23.314,0-42.281-18.967-42.281-42.281s18.967-42.281,42.281-42.281
		s42.281,18.967,42.281,42.281S134.067,360.61,110.755,360.61z M110.755,291.721c-14.671,0-26.607,11.936-26.607,26.607
		s11.936,26.607,26.607,26.607s26.607-11.936,26.607-26.607S125.426,291.721,110.755,291.721z"/>
	<path style="fill:#DEAF50;" d="M401.246,360.61c-23.314,0-42.281-18.967-42.281-42.281s18.967-42.281,42.281-42.281
		c23.314,0,42.281,18.967,42.281,42.281S424.559,360.61,401.246,360.61z M401.246,291.721c-14.671,0-26.607,11.936-26.607,26.607
		s11.936,26.607,26.607,26.607c14.671,0,26.607-11.936,26.607-26.607S415.918,291.721,401.246,291.721z"/>
</g>
<path style="fill:#E6E6E6;" d="M460.272,451.76H51.729c-16.966,0-30.72-13.754-30.72-30.72l0,0c0-16.966,13.754-30.72,30.72-30.72
	h408.541c16.966,0,30.72,13.754,30.72,30.72l0,0C490.992,438.007,477.238,451.76,460.272,451.76z"/>
<path style="fill:#B3B3B3;" d="M83.608,433.896c-16.966,0-30.72-13.754-30.72-30.72l0,0c0-4.591,1.015-8.943,2.82-12.854H51.73
	c-16.966,0-30.72,13.754-30.72,30.72l0,0c0,16.966,13.754,30.72,30.72,30.72h408.541c12.375,0,23.034-7.322,27.9-17.866H83.608z"/>
<path style="fill:#333333;" d="M297.153,284.196h-82.306c-18.402,0-33.32,14.918-33.32,33.32v37.429h148.946v-37.429
	C330.474,299.114,315.556,284.196,297.153,284.196z"/>
<path style="fill:#FFD371;" d="M420.281,108.256l1.093,17.296h-0.01c-6.76-10.616-18.916-17.59-32.649-17.59H123.3
	c-13.744,0-25.909,6.983-32.67,17.6l1.093-17.307c1.296-20.413,18.227-36.313,38.692-36.313H381.59
	C402.054,71.942,418.986,87.843,420.281,108.256z"/>
<g>
	<path style="fill:#DEAF50;" d="M171.218,71.943c-20.363,0-37.234,15.748-38.671,36.02h-9.25c-13.744,0-25.908,6.983-32.669,17.599
		l1.093-17.307c1.296-20.413,18.227-36.313,38.692-36.313h40.805V71.943z"/>
	<path style="fill:#DEAF50;" d="M297.153,276.359h-82.307c-22.694,0-41.158,18.462-41.158,41.158v37.429
		c0,4.328,3.508,7.837,7.837,7.837h148.946c4.329,0,7.837-3.509,7.837-7.837v-37.429
		C338.31,294.822,319.848,276.359,297.153,276.359z M222.684,292.033h25.48v55.076h-25.48V292.033z M263.838,292.033h25.48v55.076
		h-25.48V292.033z M189.364,317.516c0-11.318,7.419-20.931,17.647-24.246v53.837h-17.647L189.364,317.516L189.364,317.516z
		 M322.636,347.108H304.99v-53.837c10.227,3.314,17.646,12.928,17.646,24.246V347.108z"/>
</g>
<g>
	<rect x="286.031" y="16.792" style="fill:#4D4D4D;" width="20.02" height="20.02"/>
	<rect x="266.011" y="36.812" style="fill:#4D4D4D;" width="20.02" height="20.02"/>
	<rect x="245.991" y="16.792" style="fill:#4D4D4D;" width="20.02" height="20.02"/>
	<rect x="225.971" y="36.812" style="fill:#4D4D4D;" width="20.02" height="20.02"/>
	<rect x="205.95" y="16.792" style="fill:#4D4D4D;" width="20.02" height="20.02"/>
</g>
<g>
</g>
<g>
</g>
<g>
</g>
<g>
</g>
<g>
</g>
<g>
</g>
<g>
</g>
<g>
</g>
<g>
</g>
<g>
</g>
<g>
</g>
<g>
</g>
<g>
</g>
<g>
</g>
<g>
</g>
</svg>
