<?xml version="1.0" encoding="iso-8859-1"?>
<!-- Generator: Adobe Illustrator 19.0.0, SVG Export Plug-In . SVG Version: 6.00 Build 0)  -->
<svg version="1.1" id="Capa_1" xmlns="http://www.w3.org/2000/svg" xmlns:xlink="http://www.w3.org/1999/xlink" x="0px" y="0px"
	 viewBox="0 0 512 512" style="enable-background:new 0 0 512 512;" xml:space="preserve">
<g>
	<path style="fill:#428FCE;" d="M508.084,254.171l-31.076-26.452c-1.585-1.35-3.643-2.013-5.716-1.847
		c-2.074,0.166-3.999,1.151-5.347,2.736l-26.451,31.076c-2.81,3.301-2.411,8.254,0.889,11.064c1.478,1.257,3.285,1.872,5.084,1.872
		c2.221,0,4.428-0.938,5.98-2.762l13.726-16.126c0.695,50.638-16.744,99.236-49.877,138.161
		c-36.218,42.55-86.838,68.448-142.535,72.925c-4.321,0.347-7.542,4.131-7.194,8.452c0.33,4.107,3.765,7.22,7.815,7.22
		c0.211,0,0.424-0.008,0.637-0.026c59.876-4.813,114.294-32.656,153.23-78.397c36.045-42.346,54.81-95.341,53.581-150.482
		l17.079,14.537c3.301,2.81,8.254,2.412,11.064-0.889C511.784,261.934,511.385,256.981,508.084,254.171z"/>
	<path style="fill:#428FCE;" d="M237.981,32.138c-59.876,4.813-114.293,32.656-153.229,78.398
		c-36.045,42.346-54.81,95.341-53.581,150.482l-17.08-14.538c-3.301-2.809-8.254-2.412-11.064,0.889
		c-2.81,3.301-2.411,8.254,0.889,11.064l31.076,26.452c1.478,1.257,3.285,1.872,5.084,1.872c2.221,0,4.428-0.938,5.979-2.762
		l26.452-31.076c2.81-3.301,2.412-8.254-0.889-11.064c-3.3-2.809-8.254-2.412-11.063,0.889l-13.719,16.116
		C45.43,149.879,129.023,56.644,239.239,47.785c4.321-0.347,7.542-4.131,7.194-8.452C246.086,35.012,242.311,31.792,237.981,32.138z
		"/>
</g>
<path style="fill:#A6C8E8;" d="M483.807,125.739l9.207,9.207c3.8,3.8,3.01,10.16-1.604,12.915l-20.846,12.446l-28.854,28.854
	l-12.447,20.846c-2.754,4.614-9.115,5.404-12.915,1.604l-9.207-9.207c-3.374-3.374-4.939-8.151-4.216-12.866l3.885-25.342
	l38.787-38.787l25.342-3.885C475.655,120.801,480.433,122.366,483.807,125.739z"/>
<path style="fill:#81A9C9;" d="M419.063,151.943l29.932,29.932l-7.285,7.285l-12.447,20.846c-2.754,4.614-9.115,5.404-12.915,1.604
	l-9.207-9.207c-3.374-3.374-4.939-8.151-4.216-12.866l3.885-25.342L419.063,151.943z"/>
<path style="fill:#A6C8E8;" d="M354.491,28.525l-43.982,43.982L291.906,53.49c-11.003-10.175-12.89-26.431-5.438-38.662
	c1.251-2.065,2.775-4.018,4.558-5.802c12.083-12.082,31.61-11.986,43.59-0.006C334.904,9.308,354.491,28.525,354.491,28.525z"/>
<path style="fill:#81A9C9;" d="M310.508,72.507L291.906,53.49c-11.003-10.175-12.89-26.431-5.438-38.662
	c11.883-7.237,27.578-5.66,37.789,4.551c0.289,0.289,19.875,19.505,19.875,19.505L310.508,72.507z"/>
<path style="fill:#A6C8E8;" d="M492.022,15.289l13.47,13.47c3.502,3.502,3.082,9.297-0.889,12.256l-81.348,60.627l-39.663,39.663
	l-19.261,25.841l-41.366,55.507c-2.959,3.971-8.754,4.392-12.256,0.889l-13.47-13.47c-3.847-3.847-4.987-9.637-2.887-14.654
	l28.255-67.513l13.198-31.539l42.511-42.511l99.051-41.453C482.386,10.302,488.176,11.443,492.022,15.289z"/>
<polygon style="fill:#81A9C9;" points="355.627,76.546 400.565,124.332 383.592,141.305 364.331,167.146 322.607,127.905 
	335.805,96.367 "/>
<path style="fill:#A6C8E8;" d="M462.972,180.984L462.972,180.984c-10.018,10.018-26.182,10.267-36.503,0.561L310.512,72.506
	c-12.792-12.029-13.103-32.253-0.686-44.669l0,0c12.416-12.416,32.64-12.105,44.669,0.686l109.039,115.957
	C473.239,154.802,472.991,170.966,462.972,180.984z"/>
<path id="SVGCleanerId_0" style="fill:#A5E5DF;" d="M331.792,18.725l6.416,6.416c-7.939,0.007-15.887,3.026-21.969,9.108
	c-6.082,6.082-9.108,14.022-9.117,21.962l-6.416-6.416c0.007-7.939,3.034-15.88,9.117-21.962
	C315.905,21.751,323.853,18.732,331.792,18.725z"/>
<g>
	<path style="fill:#81A9C9;" d="M438.444,169.57L322.487,60.531c-10.651-10.016-12.64-25.709-5.843-37.851
		c-2.44,1.366-4.74,3.079-6.818,5.157l0,0c-12.416,12.416-12.105,32.64,0.686,44.669L426.47,181.544
		c10.321,9.705,26.485,9.457,36.503-0.561l0,0c2.094-2.094,3.756-4.459,4.994-6.981C458.425,178.69,446.608,177.247,438.444,169.57z
		"/>
	<path style="fill:#81A9C9;" d="M432.045,138.963l49.71,49.71c2.079,2.079,2.752,5.031,2.005,7.674
		c-0.347,1.251-1.014,2.434-2.005,3.426c-3.063,3.063-8.036,3.063-11.1,0l-49.71-49.71c-3.063-3.063-3.063-8.036,0-11.1
		c0.992-0.991,2.176-1.658,3.426-2.005C427.014,136.21,429.966,136.884,432.045,138.963z"/>
</g>
<path style="fill:#A6C8E8;" d="M432.045,138.963l49.71,49.71c2.079,2.079,2.752,5.031,2.005,7.674
	c-2.641,0.747-5.594,0.074-7.674-2.005l-49.71-49.71c-2.079-2.079-2.752-5.031-2.005-7.674
	C427.014,136.21,429.966,136.884,432.045,138.963z"/>
<g>
	<path id="SVGCleanerId_0_1_" style="fill:#A5E5DF;" d="M331.792,18.725l6.416,6.416c-7.939,0.007-15.887,3.026-21.969,9.108
		c-6.082,6.082-9.108,14.022-9.117,21.962l-6.416-6.416c0.007-7.939,3.034-15.88,9.117-21.962
		C315.905,21.751,323.853,18.732,331.792,18.725z"/>
</g>
<path style="fill:#A6C8E8;" d="M28.501,386.26l-9.207-9.207c-3.8-3.8-3.01-10.16,1.604-12.915l20.846-12.447l28.854-28.854
	l12.446-20.846c2.754-4.614,9.115-5.404,12.915-1.604l9.207,9.207c3.374,3.374,4.939,8.151,4.216,12.866l-3.885,25.342L66.71,386.59
	l-25.342,3.885C36.652,391.199,31.875,389.633,28.501,386.26z"/>
<path style="fill:#81A9C9;" d="M93.244,360.056l-29.932-29.932l7.285-7.285l12.446-20.846c2.754-4.614,9.115-5.404,12.915-1.604
	l9.207,9.207c3.374,3.374,4.939,8.151,4.216,12.866l-3.885,25.342L93.244,360.056z"/>
<path style="fill:#A6C8E8;" d="M157.816,483.475l43.982-43.982l18.603,19.017c11.003,10.175,12.89,26.431,5.438,38.662
	c-1.251,2.065-2.775,4.018-4.558,5.802c-12.083,12.083-31.611,11.987-43.591,0.007C177.403,502.692,157.816,483.475,157.816,483.475
	z"/>
<path style="fill:#81A9C9;" d="M201.8,439.492l18.603,19.017c11.003,10.175,12.89,26.431,5.438,38.662
	c-11.883,7.237-27.578,5.66-37.789-4.551c-0.289-0.289-19.875-19.505-19.875-19.505L201.8,439.492z"/>
<path style="fill:#A6C8E8;" d="M20.286,496.71l-13.47-13.47c-3.502-3.502-3.082-9.297,0.889-12.256l81.348-60.627l39.663-39.663
	l19.261-25.841l41.366-55.507c2.959-3.971,8.754-4.392,12.256-0.889l13.47,13.47c3.847,3.847,4.987,9.637,2.887,14.655
	l-28.255,67.513l-13.198,31.538l-42.511,42.511l-99.051,41.453C29.922,501.697,24.132,500.557,20.286,496.71z"/>
<polygon style="fill:#81A9C9;" points="156.681,435.454 111.742,387.668 128.716,370.694 147.977,344.853 189.701,384.094 
	176.503,415.632 "/>
<path style="fill:#A6C8E8;" d="M49.335,331.016L49.335,331.016c10.018-10.018,26.182-10.267,36.503-0.561l115.957,109.039
	c12.792,12.029,13.103,32.253,0.686,44.669l0,0c-12.416,12.416-32.64,12.105-44.669-0.686L48.774,367.518
	C39.068,357.197,39.317,341.034,49.335,331.016z"/>
<path id="SVGCleanerId_1" style="fill:#A5E5DF;" d="M180.516,493.275l-6.416-6.416c7.939-0.007,15.887-3.026,21.969-9.108
	c6.082-6.082,9.108-14.022,9.117-21.962l6.416,6.416c-0.007,7.939-3.034,15.88-9.117,21.962
	C196.402,490.248,188.456,493.267,180.516,493.275z"/>
<g>
	<path style="fill:#81A9C9;" d="M73.863,342.43L189.82,451.469c10.651,10.016,12.64,25.709,5.843,37.851
		c2.44-1.366,4.74-3.079,6.818-5.157l0,0c12.416-12.416,12.105-32.64-0.686-44.669L85.838,330.454
		c-10.321-9.705-26.485-9.457-36.503,0.561l0,0c-2.094,2.094-3.756,4.459-4.994,6.981C53.883,333.31,65.7,334.753,73.863,342.43z"/>
	<path style="fill:#81A9C9;" d="M80.262,373.036l-49.71-49.71c-2.079-2.079-2.752-5.031-2.005-7.674
		c0.347-1.251,1.014-2.434,2.005-3.426c3.063-3.063,8.036-3.063,11.1,0l49.71,49.71c3.063,3.063,3.063,8.036,0,11.1
		c-0.992,0.991-2.176,1.658-3.426,2.005C85.294,375.79,82.341,375.116,80.262,373.036z"/>
</g>
<path style="fill:#A6C8E8;" d="M80.262,373.036l-49.71-49.71c-2.079-2.079-2.752-5.031-2.005-7.674
	c2.641-0.747,5.594-0.074,7.674,2.005l49.71,49.71c2.079,2.079,2.752,5.031,2.005,7.674
	C85.294,375.79,82.341,375.116,80.262,373.036z"/>
<g>
	<path id="SVGCleanerId_1_1_" style="fill:#A5E5DF;" d="M180.516,493.275l-6.416-6.416c7.939-0.007,15.887-3.026,21.969-9.108
		c6.082-6.082,9.108-14.022,9.117-21.962l6.416,6.416c-0.007,7.939-3.034,15.88-9.117,21.962
		C196.402,490.248,188.456,493.267,180.516,493.275z"/>
</g>
<g>
</g>
<g>
</g>
<g>
</g>
<g>
</g>
<g>
</g>
<g>
</g>
<g>
</g>
<g>
</g>
<g>
</g>
<g>
</g>
<g>
</g>
<g>
</g>
<g>
</g>
<g>
</g>
<g>
</g>
</svg>
